<svg width="1990" height="2523" viewBox="0 0 1990 2523" fill="none" xmlns="http://www.w3.org/2000/svg">
<g clip-path="url(#clip0_185_3082)">
<rect width="1990" height="2523" fill="white"/>
<rect width="1990" height="2523" fill="#1E1E2C"/>
<g style="mix-blend-mode:lighten">
<circle cx="195" cy="2355" r="426" fill="url(#paint0_radial_185_3082)" fill-opacity="0.3"/>
</g>
<g filter="url(#filter0_f_185_3082)">
<path d="M3502 928.35C3502 1636.74 2927.81 2211 2219.5 2211C1511.19 2211 937 1636.74 937 928.35C937 219.963 1126.52 -311 1834.82 -311C2543.13 -311 3502 219.963 3502 928.35ZM1067.29 928.35C1067.29 1564.77 1583.15 2080.69 2219.5 2080.69C2855.85 2080.69 3371.71 1564.77 3371.71 928.35C3371.71 291.931 2855.85 -223.989 2219.5 -223.989C1583.15 -223.989 1067.29 291.931 1067.29 928.35Z" fill="url(#paint1_linear_185_3082)" fill-opacity="0.5"/>
</g>
<g filter="url(#filter1_f_185_3082)">
<path d="M2537 906.5C2537 1376.22 2156.22 1757 1686.5 1757C1216.78 1757 836 1376.22 836 906.5C836 436.782 1216.78 56 1686.5 56C2156.22 56 2537 436.782 2537 906.5ZM922.406 906.5C922.406 1328.5 1220.5 1755.88 1642.5 1755.88C2064.5 1755.88 2450.59 1328.5 2450.59 906.5C2450.59 484.503 2108.5 142.406 1686.5 142.406C1264.5 142.406 922.406 484.503 922.406 906.5Z" fill="url(#paint2_radial_185_3082)" fill-opacity="0.6"/>
</g>
</g>
<defs>
<filter id="filter0_f_185_3082" x="637" y="-611" width="3165" height="3122" filterUnits="userSpaceOnUse" color-interpolation-filters="sRGB">
<feFlood flood-opacity="0" result="BackgroundImageFix"/>
<feBlend mode="normal" in="SourceGraphic" in2="BackgroundImageFix" result="shape"/>
<feGaussianBlur stdDeviation="150" result="effect1_foregroundBlur_185_3082"/>
</filter>
<filter id="filter1_f_185_3082" x="736" y="-44" width="1901" height="1901" filterUnits="userSpaceOnUse" color-interpolation-filters="sRGB">
<feFlood flood-opacity="0" result="BackgroundImageFix"/>
<feBlend mode="normal" in="SourceGraphic" in2="BackgroundImageFix" result="shape"/>
<feGaussianBlur stdDeviation="50" result="effect1_foregroundBlur_185_3082"/>
</filter>
<radialGradient id="paint0_radial_185_3082" cx="0" cy="0" r="1" gradientUnits="userSpaceOnUse" gradientTransform="translate(195 2355) rotate(141.045) scale(435.745)">
<stop stop-color="#532D9E"/>
<stop offset="1" stop-color="#532D9E" stop-opacity="0"/>
</radialGradient>
<linearGradient id="paint1_linear_185_3082" x1="1260.6" y1="-3328.84" x2="2329.8" y2="2705.38" gradientUnits="userSpaceOnUse">
<stop stop-color="#31E0EB"/>
<stop offset="0.111111" stop-color="#68D2EF"/>
<stop offset="0.222222" stop-color="#87C4F4"/>
<stop offset="0.333333" stop-color="#9FB4F8"/>
<stop offset="0.444444" stop-color="#B2A4FD"/>
<stop offset="0.555556" stop-color="#B08EF4"/>
<stop offset="0.666667" stop-color="#9875DE"/>
<stop offset="0.777778" stop-color="#825DC8"/>
<stop offset="0.888889" stop-color="#6A45B3"/>
<stop offset="1" stop-color="#532D9E"/>
</linearGradient>
<radialGradient id="paint2_radial_185_3082" cx="0" cy="0" r="1" gradientUnits="userSpaceOnUse" gradientTransform="translate(1287.5 240) rotate(65.2145) scale(1742.51)">
<stop offset="0.0551314" stop-color="#664D9D"/>
<stop offset="1" stop-color="#31E0EB"/>
</radialGradient>
<clipPath id="clip0_185_3082">
<rect width="1990" height="2523" fill="white"/>
</clipPath>
</defs>
</svg>
