<svg width="24" height="24" viewBox="0 0 24 24" fill="none" xmlns="http://www.w3.org/2000/svg">
<path d="M16.9168 6.91731C16.6153 6.61574 16.1258 6.61574 15.8242 6.91731L12 10.7415L8.17581 6.91731C7.87424 6.61574 7.38475 6.61574 7.08318 6.91731C6.78162 7.21887 6.78162 7.70837 7.08318 8.00993L10.9074 11.8341L7.08318 15.6583C6.78162 15.9599 6.78162 16.4494 7.08318 16.7509C7.38475 17.0525 7.87424 17.0525 8.17581 16.7509L12 12.9267L15.8242 16.7509C16.1258 17.0525 16.6153 17.0525 16.9168 16.7509C17.2184 16.4494 17.2184 15.9599 16.9168 15.6583L13.0926 11.8341L16.9168 8.00993C17.2184 7.70837 17.2184 7.21887 16.9168 6.91731Z" fill="white"/>
</svg>
