<svg width="24" height="24" viewBox="0 0 24 24" fill="none" xmlns="http://www.w3.org/2000/svg">
<g clip-path="url(#clip0_33_113)">
<path d="M1.52741 10.9751C1.63307 12.4274 2.42738 13.5954 3.4145 13.7572C4.1477 13.8774 4.90049 13.9806 5.66803 13.9806C6.43557 13.9806 7.18836 13.8774 7.92156 13.7572C8.90868 13.5954 9.70298 12.4274 9.80865 10.9751C9.88665 9.90298 9.95251 8.80229 9.95251 7.68015C9.95251 6.558 9.88665 5.45732 9.80865 4.38523C9.70298 2.93294 8.90866 1.76487 7.92156 1.60307C7.18836 1.48289 6.43557 1.37967 5.66803 1.37967C4.90049 1.37967 4.1477 1.48289 3.4145 1.60307C2.42738 1.76487 1.63307 2.93294 1.52741 4.38523C1.44941 5.45732 1.38354 6.558 1.38354 7.68015C1.38354 8.80229 1.44941 9.90298 1.52741 10.9751Z" fill="white" fill-opacity="0.05" stroke="white" stroke-opacity="0.6" stroke-width="1.71429"/>
<path d="M22.5095 13.0944C22.4037 11.6431 21.6076 10.4758 20.6183 10.314C19.8834 10.1939 19.1289 10.0908 18.3597 10.0908C17.5905 10.0908 16.836 10.1939 16.1011 10.314C15.1118 10.4758 14.3158 11.6431 14.2099 13.0944C14.1317 14.1658 14.0657 15.2658 14.0657 16.3872C14.0657 17.5087 14.1317 18.6086 14.2099 19.68C14.3158 21.1313 15.1118 22.2987 16.1011 22.4604C16.836 22.5804 17.5905 22.6836 18.3597 22.6836C19.1289 22.6836 19.8834 22.5804 20.6183 22.4604C21.6076 22.2987 22.4037 21.1313 22.5095 19.68C22.5877 18.6086 22.6538 17.5087 22.6538 16.3872C22.6538 15.2658 22.5877 14.1658 22.5095 13.0944Z" fill="white" fill-opacity="0.05" stroke="white" stroke-opacity="0.6" stroke-width="1.71429"/>
<path d="M1.52741 21.5976C1.63307 22.1223 2.42738 22.5444 3.4145 22.6029C4.1477 22.6464 4.90049 22.6836 5.66803 22.6836C6.43555 22.6836 7.18836 22.6464 7.92156 22.6029C8.90866 22.5444 9.70298 22.1223 9.80865 21.5976C9.88665 21.2102 9.95251 20.8123 9.95251 20.4069C9.95251 20.0013 9.88665 19.6035 9.80865 19.2161C9.70298 18.6914 8.90866 18.2693 7.92156 18.2109C7.18836 18.1673 6.43555 18.1301 5.66803 18.1301C4.90049 18.1301 4.1477 18.1673 3.4145 18.2109C2.42738 18.2693 1.63307 18.6914 1.52741 19.2161C1.44941 19.6035 1.38354 20.0013 1.38354 20.4069C1.38354 20.8123 1.44941 21.2102 1.52741 21.5976Z" stroke="white" stroke-opacity="0.6" stroke-width="1.71429"/>
<path d="M22.5095 2.46578C22.4037 1.94096 21.6076 1.51887 20.6183 1.4604C19.8834 1.41697 19.1289 1.37967 18.3597 1.37967C17.5905 1.37967 16.836 1.41697 16.1011 1.4604C15.1118 1.51887 14.3158 1.94096 14.2099 2.46578C14.1317 2.8532 14.0657 3.25095 14.0657 3.65645C14.0657 4.06196 14.1317 4.45971 14.2099 4.84714C14.3158 5.37194 15.1118 5.79404 16.1011 5.85252C16.836 5.89594 17.5905 5.93324 18.3597 5.93324C19.1289 5.93324 19.8834 5.89594 20.6183 5.85252C21.6076 5.79404 22.4037 5.37194 22.5095 4.84714C22.5877 4.45971 22.6538 4.06196 22.6538 3.65645C22.6538 3.25095 22.5877 2.8532 22.5095 2.46578Z" stroke="white" stroke-opacity="0.6" stroke-width="1.71429"/>
</g>
<defs>
<clipPath id="clip0_33_113">
<rect width="24" height="24" fill="white"/>
</clipPath>
</defs>
</svg>
