<svg width="109" height="34" viewBox="0 0 109 34" fill="none" xmlns="http://www.w3.org/2000/svg">
<path d="M50.1344 5.33801C50.2169 7.59579 50.1866 9.85649 50.0438 12.111C50.0572 12.1774 50.0673 12.2445 50.074 12.312C50.1374 12.9745 51.2705 13.6339 51.2916 14.2965C51.4276 14.5293 50.3941 14.8003 50.376 15.072C50.34 15.6823 50.2735 16.2902 50.1767 16.8932C50.1767 17.0722 50.1767 17.2481 50.1585 17.427C50.1893 18.5511 50.1043 19.6753 49.9048 20.7806C49.9048 20.9627 49.9048 21.1417 49.9048 21.3238C49.9048 22.6583 50.2069 24.1498 49.3793 25.2833C49.0425 25.7108 48.6012 26.0362 48.1018 26.2253C47.374 26.6618 46.3441 26.8533 44.985 26.8533C43.1434 26.8595 41.3086 26.6221 39.5246 26.1468V33.3971C41.3972 33.7881 43.3016 33.99 45.2115 34C54.2387 34 57.1955 30.1786 57.1955 22.8216V5.33801H50.1344Z" fill="white"/>
<path d="M68.6509 25.6193C60.7472 25.6193 56.6367 21.4431 56.6367 15.2322C56.6367 9.02124 60.8136 4.84503 67.5274 4.84503C73.1479 4.84503 77.6479 9.18766 77.6479 15.2981V17.5369H64.9633C65.5099 19.2734 66.9536 19.735 68.9469 19.735C71.0036 19.735 72.2871 19.1069 73.6704 18.1649L77.6539 22.674C75.6938 24.3759 72.3868 25.613 68.6599 25.613L68.6509 25.6193ZM64.9572 13.188H69.7442C69.3908 11.753 68.6207 10.99 67.3673 10.99C66.114 10.99 65.3106 11.7248 64.9512 13.188" fill="white"/>
<path d="M85.2738 24.8061H77.5633V5.65202H84.8872V8.59106C85.5586 7.56988 86.4599 6.73481 87.5127 6.15853C88.5654 5.58226 89.7377 5.28225 90.9275 5.28463C94.3976 5.28463 97.4479 7.95678 97.4479 12.2994V24.8061H89.7405V14.7957C89.7405 13.1252 88.9704 12.3559 87.5872 12.3559C86.3006 12.3559 85.2738 13.3262 85.2738 14.4597V24.8061Z" fill="white"/>
<path d="M107.233 12.3591V24.8155H99.5228V12.3591H97.756V5.64573H99.5228V1.00166L107.233 0V5.64573H109V12.3591H107.233Z" fill="white"/>
<path d="M16.0068 25.0007C15.0494 25.4812 13.3702 25.6288 11.8178 25.6288C5.07686 25.6193 0 21.9487 0 15.229C0 8.50942 5.07686 4.84189 11.8057 4.84189C13.3551 4.84189 15.0373 4.98005 15.9947 5.46989V12.8301H15.7954C15.3 12.1801 13.9833 11.7342 12.3343 11.7342C10.0933 11.7342 8.27821 13.21 8.27821 15.2322C8.27821 17.3234 10.0903 18.7302 12.3343 18.7302C13.9833 18.7302 15.3031 18.2843 15.7954 17.6343H16.0068V25.0007Z" fill="white"/>
<path fill-rule="evenodd" clip-rule="evenodd" d="M26.4746 25.6162C32.835 25.6162 37.6854 21.1951 37.6854 15.2291C37.6854 9.23792 32.835 4.84191 26.4746 4.84191C20.1142 4.84191 15.2638 9.23792 15.2638 15.2291C15.2638 21.2202 20.1142 25.6162 26.4746 25.6162ZM24.5024 11.6777H28.4467L30.4189 15.2322L28.4467 18.7835H24.5024L22.5303 15.2322L24.5024 11.6777Z" fill="white"/>
<path fill-rule="evenodd" clip-rule="evenodd" d="M45.9786 24.9474C52.0129 24.9474 56.6186 20.7617 56.6186 15.0877C56.6186 9.42002 52.0159 5.22811 45.9786 5.22811C39.9414 5.22811 35.3357 9.41374 35.3357 15.0877C35.3357 20.7617 39.9444 24.9474 45.9786 24.9474ZM49.6165 11.5963H42.1935V18.9406H49.6165V11.5963Z" fill="white"/>
</svg>
