<svg width="24" height="24" viewBox="0 0 24 24" fill="none" xmlns="http://www.w3.org/2000/svg">
<g clip-path="url(#clip0_184_1433)">
<path d="M17.3026 1.83984C19.2881 2.11749 20.3528 2.37563 22.1602 3.01795C21.9032 4.91874 21.6449 5.98355 20.9822 7.87557" stroke="white" stroke-width="1.71429" stroke-linecap="round" stroke-linejoin="round"/>
<path d="M21.3492 3.44214C21.3492 3.44214 15.5874 7.04768 11.5714 8.66288C8.05765 10.0761 2.27258 11.4166 2.27258 11.4166" stroke="white" stroke-width="1.71429" stroke-linecap="round" stroke-linejoin="round"/>
<path d="M8.15195 22.5927H2.94247C2.08044 22.5927 1.34304 21.9526 1.30199 21.0915C1.27317 20.4867 1.27474 19.8842 1.30672 19.2792C1.35003 18.4596 2.02663 17.8308 2.84666 17.796C4.19902 17.7387 5.38793 17.7387 6.7403 17.796C7.56033 17.8308 8.23692 18.4596 8.28024 19.2792C8.33854 20.3823 8.29577 21.4771 8.15195 22.5927Z" fill="white" fill-opacity="0.05" stroke="white" stroke-width="1.71429" stroke-linejoin="round"/>
<path d="M15.1761 22.5928H8.4592C8.2918 20.4547 8.26129 18.3633 8.36766 16.2423C8.40906 15.4166 9.05588 14.7501 9.88058 14.6928C11.2257 14.5993 12.4096 14.5993 13.7547 14.6928C14.5794 14.7501 15.2262 15.4166 15.2676 16.2423C15.374 18.3633 15.3435 20.4547 15.1761 22.5928Z" fill="white" fill-opacity="0.05" stroke="white" stroke-width="1.71429" stroke-linejoin="round"/>
<path d="M20.5788 22.5927H15.4831C15.3045 19.3934 15.2817 16.2688 15.4148 13.0886C15.4489 12.275 16.0612 11.5982 16.8716 11.5181C18.2413 11.3827 19.4419 11.3827 20.8116 11.5181C21.6219 11.5982 22.2343 12.275 22.2684 13.0886C22.3789 15.7303 22.3819 18.3336 22.2773 20.9732C22.2413 21.8822 21.4884 22.5927 20.5788 22.5927Z" fill="white" fill-opacity="0.05" stroke="white" stroke-width="1.71429" stroke-linejoin="round"/>
</g>
<defs>
<clipPath id="clip0_184_1433">
<rect width="24" height="24" fill="white"/>
</clipPath>
</defs>
</svg>
