<svg width="21" height="20" viewBox="0 0 21 20" fill="none" xmlns="http://www.w3.org/2000/svg">
<g clip-path="url(#clip0_7_27524)">
<path d="M10.4794 18.9286C5.54829 18.9286 1.55086 14.9311 1.55086 9.99998C1.55086 5.06887 5.54829 1.07141 10.4794 1.07141C15.4105 1.07141 19.408 5.06887 19.408 9.99998C19.408 14.9311 15.4105 18.9286 10.4794 18.9286Z" fill="#9092AF" fill-opacity="0.1"/>
<path d="M2.7267 14.4643C3.70955 16.1664 5.22641 17.4967 7.04231 18.2488C8.85818 19.0011 10.8715 19.133 12.77 18.6243C14.6685 18.1156 16.3461 16.9947 17.5426 15.4354C18.7392 13.876 19.3877 11.9655 19.3877 9.99998C19.3877 8.0345 18.7392 6.12394 17.5426 4.56461C16.3461 3.0053 14.6685 1.88435 12.77 1.37565C10.8715 0.866944 8.85818 0.998903 7.04231 1.75105C5.22641 2.50323 3.70955 3.83354 2.7267 5.5357" stroke="white" stroke-width="1.42857" stroke-linecap="round" stroke-linejoin="round"/>
<path d="M9.21571 14.1018C11.0154 12.6273 11.9146 11.7283 13.3175 9.99999C11.9146 8.27174 11.0154 7.37266 9.21571 5.89819" stroke="white" stroke-width="1.42857" stroke-linecap="round" stroke-linejoin="round"/>
<path d="M1.55077 10H13.3171" stroke="white" stroke-width="1.42857" stroke-linecap="round" stroke-linejoin="round"/>
</g>
<defs>
<clipPath id="clip0_7_27524">
<rect width="20" height="20" fill="white" transform="translate(0.5)"/>
</clipPath>
</defs>
</svg>
