<svg width="32" height="32" viewBox="0 0 32 32" fill="none" xmlns="http://www.w3.org/2000/svg">
<g clip-path="url(#clip0_184_1450)">
<path d="M0 16C0 7.16344 7.16344 0 16 0C24.8366 0 32 7.16344 32 16C32 24.8366 24.8366 32 16 32C7.16344 32 0 24.8366 0 16Z" fill="white"/>
<rect width="32" height="32" fill="#2B2C3E"/>
<path d="M14.9587 13.256C14.9783 13.7872 14.9711 14.3192 14.937 14.8496C14.9402 14.8653 14.9427 14.8811 14.9443 14.8969C14.9594 15.0528 15.2297 15.208 15.2347 15.3639C15.2671 15.4187 15.0206 15.4824 15.0163 15.5464C15.0077 15.69 14.9918 15.833 14.9687 15.9749C14.9687 16.017 14.9687 16.0584 14.9644 16.1005C14.9718 16.365 14.9515 16.6295 14.9039 16.8895C14.9039 16.9324 14.9039 16.9745 14.9039 17.0174C14.9039 17.3314 14.9759 17.6823 14.7786 17.949C14.6982 18.0496 14.593 18.1262 14.4738 18.1707C14.3002 18.2734 14.0546 18.3184 13.7304 18.3184C13.2911 18.3199 12.8534 18.264 12.4279 18.1522V19.8581C12.8745 19.9501 13.3288 19.9976 13.7844 20C15.9377 20 16.643 19.1008 16.643 17.3698V13.256H14.9587Z" fill="white"/>
<path d="M19.3754 18.0281C17.4901 18.0281 16.5097 17.0454 16.5097 15.584C16.5097 14.1226 17.506 13.14 19.1074 13.14C20.4481 13.14 21.5215 14.1618 21.5215 15.5996V16.1263H18.4958C18.6262 16.5349 18.9706 16.6435 19.446 16.6435C19.9366 16.6435 20.2428 16.4958 20.5727 16.2741L21.523 17.3351C21.0554 17.7355 20.2666 18.0266 19.3776 18.0266L19.3754 18.0281ZM18.4944 15.1031H19.6362C19.5519 14.7654 19.3682 14.5859 19.0693 14.5859C18.7703 14.5859 18.5787 14.7588 18.4929 15.1031" fill="white"/>
<path d="M23.3405 17.8367H21.5013V13.3299H23.2483V14.0214C23.4085 13.7811 23.6235 13.5847 23.8746 13.4491C24.1257 13.3135 24.4053 13.2429 24.6891 13.2434C25.5169 13.2434 26.2445 13.8722 26.2445 14.894V17.8367H24.406V15.4813C24.406 15.0883 24.2223 14.9073 23.8924 14.9073C23.5855 14.9073 23.3405 15.1356 23.3405 15.4023V17.8367Z" fill="white"/>
<path d="M28.5786 14.908V17.8389H26.7394V14.908H26.3179V13.3284H26.7394V12.2357L28.5786 12V13.3284H29V14.908H28.5786Z" fill="white"/>
<path d="M6.81813 17.8825C6.58976 17.9956 6.18922 18.0303 5.81893 18.0303C4.21099 18.0281 3 17.1644 3 15.5833C3 14.0022 4.21099 13.1393 5.81605 13.1393C6.18561 13.1393 6.58688 13.1718 6.81525 13.287V15.0188H6.7677C6.64955 14.8659 6.33546 14.761 5.94212 14.761C5.40758 14.761 4.97462 15.1082 4.97462 15.584C4.97462 16.0761 5.40686 16.4071 5.94212 16.4071C6.33546 16.4071 6.65027 16.3022 6.7677 16.1492H6.81813V17.8825Z" fill="white"/>
<path fill-rule="evenodd" clip-rule="evenodd" d="M9.31504 18.0273C10.8322 18.0273 11.9892 16.9871 11.9892 15.5833C11.9892 14.1736 10.8322 13.1393 9.31504 13.1393C7.79787 13.1393 6.64091 14.1736 6.64091 15.5833C6.64091 16.993 7.79787 18.0273 9.31504 18.0273ZM8.84462 14.7477H9.78546L10.2559 15.584L9.78546 16.4197H8.84462L8.37419 15.584L8.84462 14.7477Z" fill="white"/>
<path fill-rule="evenodd" clip-rule="evenodd" d="M13.9674 17.87C15.4067 17.87 16.5054 16.8851 16.5054 15.5501C16.5054 14.2165 15.4075 13.2301 13.9674 13.2301C12.5273 13.2301 11.4287 14.215 11.4287 15.5501C11.4287 16.8851 12.528 17.87 13.9674 17.87ZM14.8351 14.7285H13.0645V16.4566H14.8351V14.7285Z" fill="white"/>
</g>
<defs>
<clipPath id="clip0_184_1450">
<path d="M0 16C0 7.16344 7.16344 0 16 0C24.8366 0 32 7.16344 32 16C32 24.8366 24.8366 32 16 32C7.16344 32 0 24.8366 0 16Z" fill="white"/>
</clipPath>
</defs>
</svg>
