<svg width="24" height="24" viewBox="0 0 24 24" fill="none" xmlns="http://www.w3.org/2000/svg">
<g clip-path="url(#clip0_184_1422)">
<path d="M11.9906 22.2854C18.5674 22.2854 22.267 18.5859 22.267 12.0091C22.267 5.43219 18.5674 1.7327 11.9906 1.7327C5.41371 1.7327 1.71423 5.43219 1.71423 12.0091C1.71423 18.5859 5.41371 22.2854 11.9906 22.2854Z" fill="white" fill-opacity="0.05"/>
<path d="M11.9906 22.2854C5.41371 22.2854 1.71423 18.5859 1.71423 12.0091C1.71423 5.43219 5.41371 1.7327 11.9906 1.7327" stroke="white" stroke-width="1.71429" stroke-linecap="round" stroke-linejoin="round"/>
<path d="M10.3465 6.83643C7.96054 7.3779 6.64697 9.18227 6.64697 12.0083C6.64697 14.7564 7.88908 16.5384 10.1515 17.1325" stroke="white" stroke-width="1.71429" stroke-linecap="round" stroke-linejoin="round"/>
<path d="M14.0459 19.2017L17.0354 22.2847C18.4421 18.2436 19.6136 16.4705 22.267 14.0636" stroke="white" stroke-width="1.71429" stroke-linecap="round" stroke-linejoin="round"/>
<path d="M11.9906 12.0083L15.552 8.44693" stroke="white" stroke-width="1.71429" stroke-linecap="round" stroke-linejoin="round"/>
<path d="M15.5506 8.4499L15.3373 7.75808C14.9628 6.54378 15.2906 5.22195 16.1892 4.32337L18.7977 1.71469L19.6199 4.38051L22.2858 5.20261L19.6771 7.81124C18.7787 8.70983 17.4568 9.03771 16.2424 8.66322L15.5506 8.4499Z" fill="white" fill-opacity="0.05" stroke="white" stroke-width="1.71429" stroke-linecap="round" stroke-linejoin="round"/>
</g>
<defs>
<clipPath id="clip0_184_1422">
<rect width="24" height="24" fill="white"/>
</clipPath>
</defs>
</svg>
